<?xml version="1.0" standalone="no"?>
<!DOCTYPE svg PUBLIC "-//W3C//DTD SVG 20010904//EN"
 "http://www.w3.org/TR/2001/REC-SVG-20010904/DTD/svg10.dtd">
<svg version="1.0" xmlns="http://www.w3.org/2000/svg"
 width="523.000000pt" height="523.000000pt" viewBox="0 0 523.000000 523.000000"
 preserveAspectRatio="xMidYMid meet">
<metadata>
Created by potrace 1.14, written by Peter Selinger 2001-2017
</metadata>
<g transform="translate(0.000000,523.000000) scale(0.100000,-0.100000)"
fill="#000000" stroke="none">
<path d="M743 4939 c-24 -4 -76 -24 -116 -43 -83 -39 -150 -105 -195 -191
l-27 -50 -3 -847 -3 -848 -67 -1 c-37 -1 -127 -2 -199 -3 l-133 -1 0 -987 0
-988 28 -1 c15 -1 111 -1 214 1 l186 2 6 -63 c7 -63 7 -82 4 -229 -1 -63 4
-85 26 -132 33 -69 111 -157 169 -191 106 -62 -49 -58 2097 -55 l1955 3 78 39
c112 56 171 128 218 265 15 44 19 84 19 208 l0 153 115 0 115 0 0 970 0 970
-75 0 c-41 0 -93 6 -115 12 l-40 13 0 765 c0 433 -4 802 -10 850 -17 146 -82
245 -213 324 -118 70 13 66 -2094 65 -1044 -1 -1917 -5 -1940 -10z"/>
<path d="M820 290 c0 -5 5 -10 10 -10 6 0 10 5 10 10 0 6 -4 10 -10 10 -5 0
-10 -4 -10 -10z"/>
</g>
</svg>
